REM MD5 80cbdbca0590e193db0e18446fb757ec
FILE "Adidas Power Soccer (Europe) (En,Fr,De,Es,It).bin" BINARY
  TRACK 01 MODE2/2352
    INDEX 01 00:00:00
  TRACK 02 AUDIO
    INDEX 00 48:45:62
    INDEX 01 48:47:62
  TRACK 03 AUDIO
    INDEX 00 52:53:72
    INDEX 01 52:55:72
  TRACK 04 AUDIO
    INDEX 00 56:41:22
    INDEX 01 56:43:22
REM LEADOUT 59:48:41
